<svg version="1.1" xmlns="http://www.w3.org/2000/svg" xmlns:xlink="http://www.w3.org/1999/xlink" width="2815" height="1415"><defs/><g transform="matrix(1,0,0,1,0,0)"><g><g><path fill="none" stroke="#d3d3d3" paint-order="fill stroke markers" d=" M 0 0 L 2800 0 L 2800 1400 L 0 1400 L 0 0 Z Z" stroke-miterlimit="10" stroke-opacity="0.8" stroke-dasharray=""/></g><g id="_C95CBEE4-E17B-4C4C-89D0-5A4C032FC666" bpmn2nodeid="_C95CBEE4-E17B-4C4C-89D0-5A4C032FC666" transform="matrix(1,0,0,1,100,100)"><g><path fill="none" stroke="none"/></g><g transform="matrix(0.125,0,0,0.125,0,0)"><g transform="matrix(1,0,0,1,0,0)"><path fill="#e8fae6" stroke="none" id="_C95CBEE4-E17B-4C4C-89D0-5A4C032FC666?shapeType=BACKGROUND" paint-order="stroke fill markers" d=" M 0 0 M 444 224 C 444 263.9 434.2 300.8 414.4 334.5 C 394.7 368.2 368 394.9 334.4 414.5 C 300.79999999999995 434.1 263.9 444 224 444 C 184.10000000000002 444 147.2 434.2 113.5 414.4 C 79.8 394.7 53.1 368 33.5 334.4 C 13.899999999999999 300.79999999999995 4 263.9 4 224 C 4 184.10000000000002 13.8 147.2 33.6 113.5 C 53.400000000000006 79.80000000000001 80.1 53.1 113.6 33.5 C 147.1 13.899999999999999 184.1 4 224 4 C 263.9 4 300.8 13.8 334.5 33.6 C 368.2 53.400000000000006 394.9 80.1 414.5 113.6 C 434.1 147.1 444 184.1 444 224 Z"/></g><g><g transform="matrix(1,0,0,1,0,0)"><g transform="matrix(1,0,0,1,0,0)"><path fill="rgb(74,162,65)" stroke="none" id="_C95CBEE4-E17B-4C4C-89D0-5A4C032FC666?shapeType=BORDER&amp;renderType=FILL" paint-order="stroke fill markers" d=" M 0 0 M 224 0 C 100.3 0 0 100.3 0 224 C 0 347.7 100.3 448 224 448 C 347.7 448 448 347.7 448 224 C 448 100.30000000000001 347.7 0 224 0 Z M 0 0 M 224 432 C 109.1 432 16 338.9 16 224 C 16 109.10000000000002 109.1 16 224 16 C 338.9 16 432 109.1 432 224 C 432 338.9 338.9 432 224 432 Z"/></g></g></g></g><g transform="matrix(1,0,0,1,28,56)"><g/></g></g><g transform="matrix(1,0,0,1,100,100)"/><g id="_AB6BEF73-25D4-4531-A5E3-89D402F2DBCC" bpmn2nodeid="_AB6BEF73-25D4-4531-A5E3-89D402F2DBCC"><g><path fill="none" stroke="rgb(0,0,0)" paint-order="fill stroke markers" d=" M 156 128 L 221 128" stroke-miterlimit="10" stroke-dasharray=""/></g><g transform="matrix(1,0,0,1,156,128)"/><g transform="matrix(6.123233995736766e-17,1,-1,6.123233995736766e-17,236,123)"><path fill="rgb(0,0,0)" stroke="rgb(0,0,0)" paint-order="fill stroke markers" d=" M 10 15 L 0 15 L 5 0 Z" stroke-miterlimit="10" stroke-dasharray=""/></g></g><g id="_89E8C68D-2BEF-4521-910B-F20B7E357218" bpmn2nodeid="_89E8C68D-2BEF-4521-910B-F20B7E357218" transform="matrix(1,0,0,1,236,77)"><g><path fill="none" stroke="none"/></g><g transform="matrix(1,0,0,1,0,0)"><path fill="#ffffff" stroke="none" id="_89E8C68D-2BEF-4521-910B-F20B7E357218?shapeType=BACKGROUND" paint-order="stroke fill markers" d=" M 2 0 L 152 0 L 152 0 A 2 2 0 0 1 154 2 L 154 100 L 154 100 A 2 2 0 0 1 152 102 L 2 102 L 2 102 A 2 2 0 0 1 0 100 L 0 2 L 0 2.0000000000000004 A 2 2 0 0 1 1.9999999999999996 0 Z"/></g><g transform="matrix(1,0,0,1,0,0)"><path fill="none" stroke="rgb(0,0,0)" id="_89E8C68D-2BEF-4521-910B-F20B7E357218?shapeType=BORDER&amp;renderType=STROKE" paint-order="fill stroke markers" d=" M 2 0 L 152 0 L 152 0 A 2 2 0 0 1 154 2 L 154 100 L 154 100 A 2 2 0 0 1 152 102 L 2 102 L 2 102 A 2 2 0 0 1 0 100 L 0 2 L 0 2.0000000000000004 A 2 2 0 0 1 1.9999999999999996 0 Z" stroke-miterlimit="10" stroke-width="1.5" stroke-dasharray=""/></g><g><g transform="matrix(0.06,0,0,0.06,9.4,9.4)"><g transform="matrix(1,0,0,1,0,0)"><path fill="#393f44" stroke="none" id="_89E8C68D-2BEF-4521-910B-F20B7E357218undefined" paint-order="stroke fill markers" d=" M 0 0 M 16 445.2101 C 16 440.86867 18.784312 431.12906000000004 22.001325 424.21728 C 35.767643 394.6402 77.282944 359.28049 129 333.08362 C 144.51625 325.22398 157.34689 319.96394 167.80739 317.17416 C 171.93153 316.07426 175.72913 314.41389999999996 176.5251 313.36265 C 178.89361 310.23449999999997 180.91404 302.90781 181.72673 294.5 L 182.5 286.5 L 178.50715 283.45457 C 166.30327 274.14645 154.2837 251.67767 148.03953 226.5 C 145.61086 216.70715 145.05603000000002 215.46246 142.98364 215.1579 C 141.70332000000002 214.96974 138.08302 212.24302 134.93852 209.09852 C 123.23314 197.39314000000002 116.89146000000001 177.37556 121.43982000000001 166.48978 C 123.00204000000001 162.75088 128.15457 159.00970999999998 131.75 159.00374 C 134.44781 158.99974 134.47062 158.60296 132.91375 138.78796 C 130.92658 113.4962 134.27903 92.26542699999999 143.13217 74.075676 C 152.23162 55.379835 167.56889 42.88208 189.04934 36.659507000000005 C 210.20334 30.531504000000005 237.79666 30.531504000000005 258.95065999999997 36.659507000000005 C 300.04166 48.562968000000005 318.95842 83.80634 314.95504999999997 141 C 314.31982999999997 150.075 313.62402 157.78816 313.4088 158.14035 C 313.19359 158.49254000000002 314.57532 159.07295000000002 316.47931 159.43014000000002 C 328.92867 161.76565000000002 330.98619 177.01772000000003 321.49638 196.62092 C 316.90319 206.10912000000002 309.35724 214.50797 304.81732 215.18517000000003 C 303.02259 215.45289000000002 302.2931 217.14618000000002 299.94277999999997 226.50000000000003 C 296.65948 239.56693 294.47402 245.30522000000002 287.94764 257.99534000000006 C 282.49071999999995 268.60596000000004 273.03466 281.10922000000005 268.10756999999995 284.2288300000001 L 264.87062 286.27832000000006 L 265.51815999999997 292.88916000000006 C 266.34490999999997 301.32961000000006 268.63948999999997 309.8706000000001 270.87735999999995 312.83742000000007 C 272.06735 314.4150200000001 275.00244999999995 315.78963000000005 280.0630699999999 317.13941000000005 C 291.06929999999994 320.0750300000001 303.61700999999994 325.27420000000006 320.99999999999994 334.10171 C 369.81470999999993 358.89104000000003 410.84810999999996 393.75797 425.03216 422.5 C 429.06985999999995 430.68183 432 440.23198 432 445.2101 L 432 448 L 224 448 L 16 448 L 16 445.2101 Z"/></g></g></g><g transform="matrix(1,0,0,1,77,43.5)"><g><text fill="#000000" stroke="none" font-family="Open Sans" font-size="12pt" font-style="normal" font-weight="normal" text-decoration="normal" x="0" y="12" text-anchor="middle" dominant-baseline="alphabetic" id="_89E8C68D-2BEF-4521-910B-F20B7E357218undefined">Task</text><path fill="none" stroke="none"/><text fill="none" stroke="#393f44" font-family="Open Sans" font-size="12pt" font-style="normal" font-weight="normal" text-decoration="normal" x="0" y="12" text-anchor="middle" dominant-baseline="alphabetic" stroke-miterlimit="10" stroke-dasharray="">Task</text></g></g></g><g id="_89E8C68D-2BEF-4521-910B-F20B7E357218" bpmn2nodeid="_89E8C68D-2BEF-4521-910B-F20B7E357218" transform="matrix(1,0,0,1,236,77)"><g><path fill="none" stroke="none"/></g><g transform="matrix(1,0,0,1,0,0)"><path fill="#ffffff" stroke="none" id="_89E8C68D-2BEF-4521-910B-F20B7E357218?shapeType=BACKGROUND" paint-order="stroke fill markers" d=" M 2 0 L 152 0 L 152 0 A 2 2 0 0 1 154 2 L 154 100 L 154 100 A 2 2 0 0 1 152 102 L 2 102 L 2 102 A 2 2 0 0 1 0 100 L 0 2 L 0 2.0000000000000004 A 2 2 0 0 1 1.9999999999999996 0 Z"/></g><g transform="matrix(1,0,0,1,0,0)"><path fill="none" stroke="rgb(0,0,0)" id="_89E8C68D-2BEF-4521-910B-F20B7E357218?shapeType=BORDER&amp;renderType=STROKE" paint-order="fill stroke markers" d=" M 2 0 L 152 0 L 152 0 A 2 2 0 0 1 154 2 L 154 100 L 154 100 A 2 2 0 0 1 152 102 L 2 102 L 2 102 A 2 2 0 0 1 0 100 L 0 2 L 0 2.0000000000000004 A 2 2 0 0 1 1.9999999999999996 0 Z" stroke-miterlimit="10" stroke-width="1.5" stroke-dasharray=""/></g><g><g transform="matrix(0.06,0,0,0.06,9.4,9.4)"><g transform="matrix(1,0,0,1,0,0)"><path fill="#393f44" stroke="none" id="_89E8C68D-2BEF-4521-910B-F20B7E357218undefined" paint-order="stroke fill markers" d=" M 0 0 M 16 445.2101 C 16 440.86867 18.784312 431.12906000000004 22.001325 424.21728 C 35.767643 394.6402 77.282944 359.28049 129 333.08362 C 144.51625 325.22398 157.34689 319.96394 167.80739 317.17416 C 171.93153 316.07426 175.72913 314.41389999999996 176.5251 313.36265 C 178.89361 310.23449999999997 180.91404 302.90781 181.72673 294.5 L 182.5 286.5 L 178.50715 283.45457 C 166.30327 274.14645 154.2837 251.67767 148.03953 226.5 C 145.61086 216.70715 145.05603000000002 215.46246 142.98364 215.1579 C 141.70332000000002 214.96974 138.08302 212.24302 134.93852 209.09852 C 123.23314 197.39314000000002 116.89146000000001 177.37556 121.43982000000001 166.48978 C 123.00204000000001 162.75088 128.15457 159.00970999999998 131.75 159.00374 C 134.44781 158.99974 134.47062 158.60296 132.91375 138.78796 C 130.92658 113.4962 134.27903 92.26542699999999 143.13217 74.075676 C 152.23162 55.379835 167.56889 42.88208 189.04934 36.659507000000005 C 210.20334 30.531504000000005 237.79666 30.531504000000005 258.95065999999997 36.659507000000005 C 300.04166 48.562968000000005 318.95842 83.80634 314.95504999999997 141 C 314.31982999999997 150.075 313.62402 157.78816 313.4088 158.14035 C 313.19359 158.49254000000002 314.57532 159.07295000000002 316.47931 159.43014000000002 C 328.92867 161.76565000000002 330.98619 177.01772000000003 321.49638 196.62092 C 316.90319 206.10912000000002 309.35724 214.50797 304.81732 215.18517000000003 C 303.02259 215.45289000000002 302.2931 217.14618000000002 299.94277999999997 226.50000000000003 C 296.65948 239.56693 294.47402 245.30522000000002 287.94764 257.99534000000006 C 282.49071999999995 268.60596000000004 273.03466 281.10922000000005 268.10756999999995 284.2288300000001 L 264.87062 286.27832000000006 L 265.51815999999997 292.88916000000006 C 266.34490999999997 301.32961000000006 268.63948999999997 309.8706000000001 270.87735999999995 312.83742000000007 C 272.06735 314.4150200000001 275.00244999999995 315.78963000000005 280.0630699999999 317.13941000000005 C 291.06929999999994 320.0750300000001 303.61700999999994 325.27420000000006 320.99999999999994 334.10171 C 369.81470999999993 358.89104000000003 410.84810999999996 393.75797 425.03216 422.5 C 429.06985999999995 430.68183 432 440.23198 432 445.2101 L 432 448 L 224 448 L 16 448 L 16 445.2101 Z"/></g></g></g><g transform="matrix(1,0,0,1,77,43.5)"><g><text fill="#000000" stroke="none" font-family="Open Sans" font-size="12pt" font-style="normal" font-weight="normal" text-decoration="normal" x="0" y="12" text-anchor="middle" dominant-baseline="alphabetic" id="_89E8C68D-2BEF-4521-910B-F20B7E357218undefined">Task</text><path fill="none" stroke="none"/><text fill="none" stroke="#393f44" font-family="Open Sans" font-size="12pt" font-style="normal" font-weight="normal" text-decoration="normal" x="0" y="12" text-anchor="middle" dominant-baseline="alphabetic" stroke-miterlimit="10" stroke-dasharray="">Task</text></g></g></g><g id="_71C99715-8B9B-4A9D-BF00-9F26A6EF5B1A" bpmn2nodeid="_71C99715-8B9B-4A9D-BF00-9F26A6EF5B1A"><g><path fill="none" stroke="rgb(0,0,0)" paint-order="fill stroke markers" d=" M 390 128 L 455 128" stroke-miterlimit="10" stroke-dasharray=""/></g><g transform="matrix(1,0,0,1,390,128)"/><g transform="matrix(6.123233995736766e-17,1,-1,6.123233995736766e-17,470,123)"><path fill="rgb(0,0,0)" stroke="rgb(0,0,0)" paint-order="fill stroke markers" d=" M 10 15 L 0 15 L 5 0 Z" stroke-miterlimit="10" stroke-dasharray=""/></g></g><g id="_0185FB21-2F97-4FCF-B7F8-486E08195A3C" bpmn2nodeid="_0185FB21-2F97-4FCF-B7F8-486E08195A3C" transform="matrix(1,0,0,1,470,77)"><g><path fill="none" stroke="none"/></g><g transform="matrix(1,0,0,1,0,0)"><path fill="#ffffff" stroke="none" id="_0185FB21-2F97-4FCF-B7F8-486E08195A3C?shapeType=BACKGROUND" paint-order="stroke fill markers" d=" M 2 0 L 152 0 L 152 0 A 2 2 0 0 1 154 2 L 154 100 L 154 100 A 2 2 0 0 1 152 102 L 2 102 L 2 102 A 2 2 0 0 1 0 100 L 0 2 L 0 2.0000000000000004 A 2 2 0 0 1 1.9999999999999996 0 Z"/></g><g transform="matrix(1,0,0,1,0,0)"><path fill="none" stroke="rgb(0,0,0)" id="_0185FB21-2F97-4FCF-B7F8-486E08195A3C?shapeType=BORDER&amp;renderType=STROKE" paint-order="fill stroke markers" d=" M 2 0 L 152 0 L 152 0 A 2 2 0 0 1 154 2 L 154 100 L 154 100 A 2 2 0 0 1 152 102 L 2 102 L 2 102 A 2 2 0 0 1 0 100 L 0 2 L 0 2.0000000000000004 A 2 2 0 0 1 1.9999999999999996 0 Z" stroke-miterlimit="10" stroke-width="1.5" stroke-dasharray=""/></g><g><g transform="matrix(0.06,0,0,0.06,9.4,9.4)"><g transform="matrix(1,0,0,1,0,0)"><path fill="#393f44" stroke="none" id="_0185FB21-2F97-4FCF-B7F8-486E08195A3Cundefined" paint-order="stroke fill markers" d=" M 0 0 M 128 344 L 128 296 C 128 293.7 127.2 291.8 125.8 290.2 C 124.39999999999999 288.59999999999997 122.39999999999999 288 120 288 L 40 288 C 37.7 288 35.8 288.8 34.2 290.2 C 32.60000000000001 291.59999999999997 32 293.7 32 296 L 32 344 C 32 346.3 32.8 348.2 34.2 349.8 C 35.60000000000001 351.40000000000003 37.6 352 40 352 L 120 352 C 122.3 352 124.2 351.2 125.8 349.8 C 127.39999999999999 348.40000000000003 128 346.3 128 344 Z M 0 0 M 128 248 L 128 200 C 128 197.7 127.2 195.8 125.8 194.2 C 124.39999999999999 192.59999999999997 122.39999999999999 192 120 192 L 40 192 C 37.7 192 35.8 192.8 34.2 194.2 C 32.60000000000001 195.59999999999997 32 197.7 32 200 L 32 248 C 32 250.3 32.8 252.2 34.2 253.8 C 35.60000000000001 255.40000000000003 37.6 256 40 256 L 120 256 C 122.3 256 124.2 255.2 125.8 253.8 C 127.39999999999999 252.40000000000003 128 250.3 128 248 Z M 0 0 M 376 352 C 378.3 352 380.2 351.2 381.8 349.8 C 383.40000000000003 348.40000000000003 384 346.40000000000003 384 344 L 384 296 C 384 293.7 383.2 291.8 381.8 290.2 C 380.40000000000003 288.59999999999997 378.40000000000003 288 376 288 L 168 288 C 165.7 288 163.8 288.8 162.2 290.2 C 160.59999999999997 291.59999999999997 160 293.59999999999997 160 296 L 160 344 C 160 346.3 160.8 348.2 162.2 349.8 C 163.59999999999997 351.40000000000003 165.6 352 168 352 L 376 352 Z M 0 0 M 128 152 L 128 104 C 128 101.7 127.2 99.8 125.8 98.2 C 124.39999999999999 96.60000000000001 122.3 96 120 96 L 40 96 C 37.7 96 35.8 96.8 34.2 98.2 C 32.60000000000001 99.60000000000001 32 101.7 32 104 L 32 152 C 32 154.3 32.8 156.2 34.2 157.8 C 35.60000000000001 159.40000000000003 37.6 160 40 160 L 120 160 C 122.3 160 124.2 159.2 125.8 157.8 C 127.39999999999999 156.40000000000003 128 154.3 128 152 Z M 0 0 M 376 256 C 378.3 256 380.2 255.2 381.8 253.8 C 383.40000000000003 252.40000000000003 384 250.4 384 248 L 384 200 C 384 197.7 383.2 195.8 381.8 194.2 C 380.40000000000003 192.59999999999997 378.40000000000003 192 376 192 L 168 192 C 165.7 192 163.8 192.8 162.2 194.2 C 160.59999999999997 195.59999999999997 160 197.6 160 200 L 160 248 C 160 250.3 160.8 252.2 162.2 253.8 C 163.59999999999997 255.40000000000003 165.6 256 168 256 L 376 256 Z M 0 0 M 376 160 C 378.3 160 380.2 159.2 381.8 157.8 C 383.40000000000003 156.40000000000003 384 154.4 384 152 L 384 104 C 384 101.7 383.2 99.8 381.8 98.2 C 380.40000000000003 96.60000000000001 378.3 96 376 96 L 168 96 C 165.7 96 163.8 96.8 162.2 98.2 C 160.59999999999997 99.60000000000001 160 101.60000000000001 160 104 L 160 152 C 160 154.3 160.8 156.2 162.2 157.8 C 163.59999999999997 159.40000000000003 165.6 160 168 160 L 376 160 Z M 0 0 M 416 72 L 416 344 C 416 355 412.1 364.4 404.2 372.2 C 396.29999999999995 380 387 384 376 384 L 40 384 C 29 384 19.6 380.1 11.8 372.2 C 4 364.29999999999995 0 355 0 344 L 0 72 C 0 61 3.9 51.6 11.8 43.8 C 19.700000000000003 35.99999999999999 29 32 40 32 L 376 32 C 387 32 396.4 35.9 404.2 43.8 C 412 51.699999999999996 416 61 416 72 Z"/></g></g></g><g transform="matrix(1,0,0,1,77,43.5)"><g><text fill="#000000" stroke="none" font-family="Open Sans" font-size="12pt" font-style="normal" font-weight="normal" text-decoration="normal" x="0" y="12" text-anchor="middle" dominant-baseline="alphabetic" id="_0185FB21-2F97-4FCF-B7F8-486E08195A3Cundefined">Task</text><path fill="none" stroke="none"/><text fill="none" stroke="#393f44" font-family="Open Sans" font-size="12pt" font-style="normal" font-weight="normal" text-decoration="normal" x="0" y="12" text-anchor="middle" dominant-baseline="alphabetic" stroke-miterlimit="10" stroke-dasharray="">Task</text></g></g></g><g id="_0185FB21-2F97-4FCF-B7F8-486E08195A3C" bpmn2nodeid="_0185FB21-2F97-4FCF-B7F8-486E08195A3C" transform="matrix(1,0,0,1,470,77)"><g><path fill="none" stroke="none"/></g><g transform="matrix(1,0,0,1,0,0)"><path fill="#ffffff" stroke="none" id="_0185FB21-2F97-4FCF-B7F8-486E08195A3C?shapeType=BACKGROUND" paint-order="stroke fill markers" d=" M 2 0 L 152 0 L 152 0 A 2 2 0 0 1 154 2 L 154 100 L 154 100 A 2 2 0 0 1 152 102 L 2 102 L 2 102 A 2 2 0 0 1 0 100 L 0 2 L 0 2.0000000000000004 A 2 2 0 0 1 1.9999999999999996 0 Z"/></g><g transform="matrix(1,0,0,1,0,0)"><path fill="none" stroke="rgb(0,0,0)" id="_0185FB21-2F97-4FCF-B7F8-486E08195A3C?shapeType=BORDER&amp;renderType=STROKE" paint-order="fill stroke markers" d=" M 2 0 L 152 0 L 152 0 A 2 2 0 0 1 154 2 L 154 100 L 154 100 A 2 2 0 0 1 152 102 L 2 102 L 2 102 A 2 2 0 0 1 0 100 L 0 2 L 0 2.0000000000000004 A 2 2 0 0 1 1.9999999999999996 0 Z" stroke-miterlimit="10" stroke-width="1.5" stroke-dasharray=""/></g><g><g transform="matrix(0.06,0,0,0.06,9.4,9.4)"><g transform="matrix(1,0,0,1,0,0)"><path fill="#393f44" stroke="none" id="_0185FB21-2F97-4FCF-B7F8-486E08195A3Cundefined" paint-order="stroke fill markers" d=" M 0 0 M 128 344 L 128 296 C 128 293.7 127.2 291.8 125.8 290.2 C 124.39999999999999 288.59999999999997 122.39999999999999 288 120 288 L 40 288 C 37.7 288 35.8 288.8 34.2 290.2 C 32.60000000000001 291.59999999999997 32 293.7 32 296 L 32 344 C 32 346.3 32.8 348.2 34.2 349.8 C 35.60000000000001 351.40000000000003 37.6 352 40 352 L 120 352 C 122.3 352 124.2 351.2 125.8 349.8 C 127.39999999999999 348.40000000000003 128 346.3 128 344 Z M 0 0 M 128 248 L 128 200 C 128 197.7 127.2 195.8 125.8 194.2 C 124.39999999999999 192.59999999999997 122.39999999999999 192 120 192 L 40 192 C 37.7 192 35.8 192.8 34.2 194.2 C 32.60000000000001 195.59999999999997 32 197.7 32 200 L 32 248 C 32 250.3 32.8 252.2 34.2 253.8 C 35.60000000000001 255.40000000000003 37.6 256 40 256 L 120 256 C 122.3 256 124.2 255.2 125.8 253.8 C 127.39999999999999 252.40000000000003 128 250.3 128 248 Z M 0 0 M 376 352 C 378.3 352 380.2 351.2 381.8 349.8 C 383.40000000000003 348.40000000000003 384 346.40000000000003 384 344 L 384 296 C 384 293.7 383.2 291.8 381.8 290.2 C 380.40000000000003 288.59999999999997 378.40000000000003 288 376 288 L 168 288 C 165.7 288 163.8 288.8 162.2 290.2 C 160.59999999999997 291.59999999999997 160 293.59999999999997 160 296 L 160 344 C 160 346.3 160.8 348.2 162.2 349.8 C 163.59999999999997 351.40000000000003 165.6 352 168 352 L 376 352 Z M 0 0 M 128 152 L 128 104 C 128 101.7 127.2 99.8 125.8 98.2 C 124.39999999999999 96.60000000000001 122.3 96 120 96 L 40 96 C 37.7 96 35.8 96.8 34.2 98.2 C 32.60000000000001 99.60000000000001 32 101.7 32 104 L 32 152 C 32 154.3 32.8 156.2 34.2 157.8 C 35.60000000000001 159.40000000000003 37.6 160 40 160 L 120 160 C 122.3 160 124.2 159.2 125.8 157.8 C 127.39999999999999 156.40000000000003 128 154.3 128 152 Z M 0 0 M 376 256 C 378.3 256 380.2 255.2 381.8 253.8 C 383.40000000000003 252.40000000000003 384 250.4 384 248 L 384 200 C 384 197.7 383.2 195.8 381.8 194.2 C 380.40000000000003 192.59999999999997 378.40000000000003 192 376 192 L 168 192 C 165.7 192 163.8 192.8 162.2 194.2 C 160.59999999999997 195.59999999999997 160 197.6 160 200 L 160 248 C 160 250.3 160.8 252.2 162.2 253.8 C 163.59999999999997 255.40000000000003 165.6 256 168 256 L 376 256 Z M 0 0 M 376 160 C 378.3 160 380.2 159.2 381.8 157.8 C 383.40000000000003 156.40000000000003 384 154.4 384 152 L 384 104 C 384 101.7 383.2 99.8 381.8 98.2 C 380.40000000000003 96.60000000000001 378.3 96 376 96 L 168 96 C 165.7 96 163.8 96.8 162.2 98.2 C 160.59999999999997 99.60000000000001 160 101.60000000000001 160 104 L 160 152 C 160 154.3 160.8 156.2 162.2 157.8 C 163.59999999999997 159.40000000000003 165.6 160 168 160 L 376 160 Z M 0 0 M 416 72 L 416 344 C 416 355 412.1 364.4 404.2 372.2 C 396.29999999999995 380 387 384 376 384 L 40 384 C 29 384 19.6 380.1 11.8 372.2 C 4 364.29999999999995 0 355 0 344 L 0 72 C 0 61 3.9 51.6 11.8 43.8 C 19.700000000000003 35.99999999999999 29 32 40 32 L 376 32 C 387 32 396.4 35.9 404.2 43.8 C 412 51.699999999999996 416 61 416 72 Z"/></g></g></g><g transform="matrix(1,0,0,1,77,43.5)"><g><text fill="#000000" stroke="none" font-family="Open Sans" font-size="12pt" font-style="normal" font-weight="normal" text-decoration="normal" x="0" y="12" text-anchor="middle" dominant-baseline="alphabetic" id="_0185FB21-2F97-4FCF-B7F8-486E08195A3Cundefined">Task</text><path fill="none" stroke="none"/><text fill="none" stroke="#393f44" font-family="Open Sans" font-size="12pt" font-style="normal" font-weight="normal" text-decoration="normal" x="0" y="12" text-anchor="middle" dominant-baseline="alphabetic" stroke-miterlimit="10" stroke-dasharray="">Task</text></g></g></g><g id="_4157D5D5-03AD-4A3F-8CD2-7A155A90C35A" bpmn2nodeid="_4157D5D5-03AD-4A3F-8CD2-7A155A90C35A"><g><path fill="none" stroke="rgb(0,0,0)" paint-order="fill stroke markers" d=" M 624 128 L 689 128" stroke-miterlimit="10" stroke-dasharray=""/></g><g transform="matrix(1,0,0,1,624,128)"/><g transform="matrix(6.123233995736766e-17,1,-1,6.123233995736766e-17,704,123)"><path fill="rgb(0,0,0)" stroke="rgb(0,0,0)" paint-order="fill stroke markers" d=" M 10 15 L 0 15 L 5 0 Z" stroke-miterlimit="10" stroke-dasharray=""/></g></g><g id="_B479E1BC-D892-4706-8F3A-E0DC1043DB10" bpmn2nodeid="_B479E1BC-D892-4706-8F3A-E0DC1043DB10" transform="matrix(1,0,0,1,704,100)"><g><path fill="none" stroke="none"/></g><g transform="matrix(0.125,0,0,0.125,0,0)"><g transform="matrix(1,0,0,1,0,0)"><path fill="#fef4ea" stroke="none" id="_B479E1BC-D892-4706-8F3A-E0DC1043DB10?shapeType=BACKGROUND" paint-order="stroke fill markers" d=" M 0 0 M 224.4 4.3 C 216.4 4.3 208.4 7.3 202.3 13.399999999999999 L 13.5 202.2 C 1.3000000000000007 214.39999999999998 1.3000000000000007 234.2 13.5 246.39999999999998 L 202.2 435.09999999999997 C 208.29999999999998 441.2 216.39999999999998 444.2 224.29999999999998 444.2 C 232.2 444.2 240.29999999999998 441.2 246.39999999999998 435.09999999999997 L 435.09999999999997 246.39999999999998 C 447.29999999999995 234.2 447.29999999999995 214.39999999999998 435.09999999999997 202.2 L 246.5 13.4 C 240.4 7.3 232.4 4.3 224.4 4.3 L 224.4 4.3 Z"/></g><g><g transform="matrix(1,0,0,1,0,0)"><g transform="matrix(1,0,0,1,0,0)"><path fill="rgb(236,122,8)" stroke="none" id="_B479E1BC-D892-4706-8F3A-E0DC1043DB10?shapeType=BORDER&amp;renderType=FILL" paint-order="stroke fill markers" d=" M 0 0 M 20.8 212.7 L 213.3 20.2 C 219.60000000000002 13.899999999999999 229.70000000000002 13.899999999999999 235.9 20.2 L 428.4 212.7 C 434.7 219 434.7 229.1 428.4 235.29999999999998 L 235.9 427.8 C 229.6 434.1 219.5 434.1 213.3 427.8 L 20.8 235.3 C 14.5 229.1 14.5 218.9 20.8 212.7 L 20.8 212.7 Z M 0 0 M 0 224 C 0 232.1 3.1 240.3 9.3 246.5 L 201.5 438.7 C 213.9 451.09999999999997 234.1 451.09999999999997 246.5 438.7 L 438.7 246.5 C 444.9 240.3 448 232.1 448 224 C 448 215.9 444.9 207.7 438.7 201.5 L 246.5 9.3 C 234.1 -3.0999999999999996 213.9 -3.0999999999999996 201.5 9.3 L 9.3 201.5 C 3.1 207.7 0 215.9 0 224 L 0 224 Z"/></g></g></g><g><g transform="matrix(1,0,0,1,0,0)"><g transform="matrix(1,0,0,1,0,0)"><path fill="#ec7a08" stroke="none" id="_B479E1BC-D892-4706-8F3A-E0DC1043DB10undefined" paint-order="stroke fill markers" d=" M 0 0 M 298.2 269.2 C 298.2 272.59999999999997 297.09999999999997 275.3 294.7 277.7 L 277.7 294.7 C 275.3 297.09999999999997 272.59999999999997 298.2 269.2 298.2 C 265.8 298.2 263.09999999999997 297.09999999999997 260.7 294.7 L 224 258 L 187.2 294.8 C 184.79999999999998 297.2 182.1 298.3 178.7 298.3 C 175.29999999999998 298.3 172.6 297.2 170.2 294.8 L 153.2 277.8 C 150.79999999999998 275.40000000000003 149.7 272.7 149.7 269.3 C 149.7 265.90000000000003 150.79999999999998 263.2 153.2 260.8 L 190 224 L 153.2 187.2 C 150.79999999999998 184.79999999999998 149.7 182 149.7 178.7 C 149.7 175.29999999999998 150.79999999999998 172.5 153.2 170.2 L 170.2 153.2 C 172.6 150.79999999999998 175.29999999999998 149.7 178.7 149.7 C 182.1 149.7 184.79999999999998 150.79999999999998 187.2 153.2 L 224 190 L 260.8 153.2 C 263.2 150.79999999999998 265.90000000000003 149.7 269.3 149.7 C 272.7 149.7 275.40000000000003 150.79999999999998 277.8 153.2 L 294.8 170.2 C 297.2 172.5 298.3 175.29999999999998 298.3 178.7 C 298.3 182 297.2 184.79999999999998 294.8 187.2 L 258 224 L 294.8 260.8 C 297.1 263.1 298.2 265.9 298.2 269.2 Z"/></g></g></g></g><g transform="matrix(1,0,0,1,28,28)"><g/></g></g><g id="_B479E1BC-D892-4706-8F3A-E0DC1043DB10" bpmn2nodeid="_B479E1BC-D892-4706-8F3A-E0DC1043DB10" transform="matrix(1,0,0,1,704,100)"><g><path fill="none" stroke="none"/></g><g transform="matrix(0.125,0,0,0.125,0,0)"><g transform="matrix(1,0,0,1,0,0)"><path fill="#fef4ea" stroke="none" id="_B479E1BC-D892-4706-8F3A-E0DC1043DB10?shapeType=BACKGROUND" paint-order="stroke fill markers" d=" M 0 0 M 224.4 4.3 C 216.4 4.3 208.4 7.3 202.3 13.399999999999999 L 13.5 202.2 C 1.3000000000000007 214.39999999999998 1.3000000000000007 234.2 13.5 246.39999999999998 L 202.2 435.09999999999997 C 208.29999999999998 441.2 216.39999999999998 444.2 224.29999999999998 444.2 C 232.2 444.2 240.29999999999998 441.2 246.39999999999998 435.09999999999997 L 435.09999999999997 246.39999999999998 C 447.29999999999995 234.2 447.29999999999995 214.39999999999998 435.09999999999997 202.2 L 246.5 13.4 C 240.4 7.3 232.4 4.3 224.4 4.3 L 224.4 4.3 Z"/></g><g><g transform="matrix(1,0,0,1,0,0)"><g transform="matrix(1,0,0,1,0,0)"><path fill="rgb(236,122,8)" stroke="none" id="_B479E1BC-D892-4706-8F3A-E0DC1043DB10?shapeType=BORDER&amp;renderType=FILL" paint-order="stroke fill markers" d=" M 0 0 M 20.8 212.7 L 213.3 20.2 C 219.60000000000002 13.899999999999999 229.70000000000002 13.899999999999999 235.9 20.2 L 428.4 212.7 C 434.7 219 434.7 229.1 428.4 235.29999999999998 L 235.9 427.8 C 229.6 434.1 219.5 434.1 213.3 427.8 L 20.8 235.3 C 14.5 229.1 14.5 218.9 20.8 212.7 L 20.8 212.7 Z M 0 0 M 0 224 C 0 232.1 3.1 240.3 9.3 246.5 L 201.5 438.7 C 213.9 451.09999999999997 234.1 451.09999999999997 246.5 438.7 L 438.7 246.5 C 444.9 240.3 448 232.1 448 224 C 448 215.9 444.9 207.7 438.7 201.5 L 246.5 9.3 C 234.1 -3.0999999999999996 213.9 -3.0999999999999996 201.5 9.3 L 9.3 201.5 C 3.1 207.7 0 215.9 0 224 L 0 224 Z"/></g></g></g><g><g transform="matrix(1,0,0,1,0,0)"><g transform="matrix(1,0,0,1,0,0)"><path fill="#ec7a08" stroke="none" id="_B479E1BC-D892-4706-8F3A-E0DC1043DB10undefined" paint-order="stroke fill markers" d=" M 0 0 M 298.2 269.2 C 298.2 272.59999999999997 297.09999999999997 275.3 294.7 277.7 L 277.7 294.7 C 275.3 297.09999999999997 272.59999999999997 298.2 269.2 298.2 C 265.8 298.2 263.09999999999997 297.09999999999997 260.7 294.7 L 224 258 L 187.2 294.8 C 184.79999999999998 297.2 182.1 298.3 178.7 298.3 C 175.29999999999998 298.3 172.6 297.2 170.2 294.8 L 153.2 277.8 C 150.79999999999998 275.40000000000003 149.7 272.7 149.7 269.3 C 149.7 265.90000000000003 150.79999999999998 263.2 153.2 260.8 L 190 224 L 153.2 187.2 C 150.79999999999998 184.79999999999998 149.7 182 149.7 178.7 C 149.7 175.29999999999998 150.79999999999998 172.5 153.2 170.2 L 170.2 153.2 C 172.6 150.79999999999998 175.29999999999998 149.7 178.7 149.7 C 182.1 149.7 184.79999999999998 150.79999999999998 187.2 153.2 L 224 190 L 260.8 153.2 C 263.2 150.79999999999998 265.90000000000003 149.7 269.3 149.7 C 272.7 149.7 275.40000000000003 150.79999999999998 277.8 153.2 L 294.8 170.2 C 297.2 172.5 298.3 175.29999999999998 298.3 178.7 C 298.3 182 297.2 184.79999999999998 294.8 187.2 L 258 224 L 294.8 260.8 C 297.1 263.1 298.2 265.9 298.2 269.2 Z"/></g></g></g></g><g transform="matrix(1,0,0,1,28,28)"><g/></g></g><g transform="matrix(1,0,0,1,704,100)"/><g id="_00E5E313-5BE8-4F5F-90B8-03A7CA115A32" bpmn2nodeid="_00E5E313-5BE8-4F5F-90B8-03A7CA115A32"><g><path fill="none" stroke="rgb(0,0,0)" paint-order="fill stroke markers" d=" M 760 128 L 825 128" stroke-miterlimit="10" stroke-dasharray=""/></g><g transform="matrix(1,0,0,1,760,128)"/><g transform="matrix(6.123233995736766e-17,1,-1,6.123233995736766e-17,840,123)"><path fill="rgb(0,0,0)" stroke="rgb(0,0,0)" paint-order="fill stroke markers" d=" M 10 15 L 0 15 L 5 0 Z" stroke-miterlimit="10" stroke-dasharray=""/></g></g><g id="_BCEEE24F-E13A-469E-B7EE-B8824186D5C1" bpmn2nodeid="_BCEEE24F-E13A-469E-B7EE-B8824186D5C1"><g><path fill="none" stroke="rgb(0,0,0)" paint-order="fill stroke markers" d=" M 760 128 L 832.6373439908883 256.9312855838268" stroke-miterlimit="10" stroke-dasharray=""/></g><g transform="matrix(1,0,0,1,760,128)"/><g transform="matrix(-0.8712476277448767,0.49084373394077746,-0.49084373394077746,-0.8712476277448767,844.3562381387244,267.5457813302961)"><path fill="rgb(0,0,0)" stroke="rgb(0,0,0)" paint-order="fill stroke markers" d=" M 10 15 L 0 15 L 5 0 Z" stroke-miterlimit="10" stroke-dasharray=""/></g></g><g id="_C3E690B0-CF66-47C6-9F28-1154B23EF638" bpmn2nodeid="_C3E690B0-CF66-47C6-9F28-1154B23EF638" transform="matrix(1,0,0,1,1074,100)"><g><path fill="none" stroke="none"/></g><g transform="matrix(0.125,0,0,0.125,0,0)"><g transform="matrix(1,0,0,1,0,0)"><path fill="#fce7e7" stroke="none" id="_C3E690B0-CF66-47C6-9F28-1154B23EF638?shapeType=BACKGROUND" paint-order="stroke fill markers" d=" M 0 0 M 444 224 C 444 263.9 434.2 300.8 414.4 334.5 C 394.7 368.2 368 394.9 334.4 414.5 C 300.79999999999995 434.1 263.9 444 224 444 C 184.10000000000002 444 147.2 434.2 113.5 414.4 C 79.8 394.7 53.1 368 33.5 334.4 C 13.899999999999999 300.79999999999995 4 263.9 4 224 C 4 184.10000000000002 13.8 147.2 33.6 113.5 C 53.400000000000006 79.80000000000001 80.1 53.1 113.6 33.5 C 147.1 13.899999999999999 184.1 4 224 4 C 263.9 4 300.8 13.8 334.5 33.6 C 368.2 53.400000000000006 394.9 80.1 414.5 113.6 C 434.1 147.1 444 184.1 444 224 Z"/></g><g><g transform="matrix(1,0,0,1,0,0)"><g transform="matrix(1,0,0,1,0,0)"><path fill="rgb(163,0,0)" stroke="none" id="_C3E690B0-CF66-47C6-9F28-1154B23EF638?shapeType=BORDER&amp;renderType=FILL" paint-order="stroke fill markers" d=" M 0 0 M 224 0 C 100.3 0 0 100.3 0 224 C 0 347.7 100.3 448 224 448 C 347.7 448 448 347.7 448 224 C 448 100.30000000000001 347.7 0 224 0 Z M 0 0 M 224 400 C 126.8 400 48 321.2 48 224 C 48 126.80000000000001 126.8 48 224 48 C 321.2 48 400 126.8 400 224 C 400 321.2 321.2 400 224 400 Z"/></g></g></g></g><g transform="matrix(1,0,0,1,28,56)"><g/></g></g><g id="_C3E690B0-CF66-47C6-9F28-1154B23EF638" bpmn2nodeid="_C3E690B0-CF66-47C6-9F28-1154B23EF638" transform="matrix(1,0,0,1,1074,100)"><g><path fill="none" stroke="none"/></g><g transform="matrix(0.125,0,0,0.125,0,0)"><g transform="matrix(1,0,0,1,0,0)"><path fill="#fce7e7" stroke="none" id="_C3E690B0-CF66-47C6-9F28-1154B23EF638?shapeType=BACKGROUND" paint-order="stroke fill markers" d=" M 0 0 M 444 224 C 444 263.9 434.2 300.8 414.4 334.5 C 394.7 368.2 368 394.9 334.4 414.5 C 300.79999999999995 434.1 263.9 444 224 444 C 184.10000000000002 444 147.2 434.2 113.5 414.4 C 79.8 394.7 53.1 368 33.5 334.4 C 13.899999999999999 300.79999999999995 4 263.9 4 224 C 4 184.10000000000002 13.8 147.2 33.6 113.5 C 53.400000000000006 79.80000000000001 80.1 53.1 113.6 33.5 C 147.1 13.899999999999999 184.1 4 224 4 C 263.9 4 300.8 13.8 334.5 33.6 C 368.2 53.400000000000006 394.9 80.1 414.5 113.6 C 434.1 147.1 444 184.1 444 224 Z"/></g><g><g transform="matrix(1,0,0,1,0,0)"><g transform="matrix(1,0,0,1,0,0)"><path fill="rgb(163,0,0)" stroke="none" id="_C3E690B0-CF66-47C6-9F28-1154B23EF638?shapeType=BORDER&amp;renderType=FILL" paint-order="stroke fill markers" d=" M 0 0 M 224 0 C 100.3 0 0 100.3 0 224 C 0 347.7 100.3 448 224 448 C 347.7 448 448 347.7 448 224 C 448 100.30000000000001 347.7 0 224 0 Z M 0 0 M 224 400 C 126.8 400 48 321.2 48 224 C 48 126.80000000000001 126.8 48 224 48 C 321.2 48 400 126.8 400 224 C 400 321.2 321.2 400 224 400 Z"/></g></g></g></g><g transform="matrix(1,0,0,1,28,56)"><g/></g></g><g id="_2124C27A-8724-414A-B155-0BCE7D8EDA01" bpmn2nodeid="_2124C27A-8724-414A-B155-0BCE7D8EDA01"><g><path fill="none" stroke="rgb(0,0,0)" paint-order="fill stroke markers" d=" M 994 128 L 1059 128" stroke-miterlimit="10" stroke-dasharray=""/></g><g transform="matrix(1,0,0,1,994,128)"/><g transform="matrix(6.123233995736766e-17,1,-1,6.123233995736766e-17,1074,123)"><path fill="rgb(0,0,0)" stroke="rgb(0,0,0)" paint-order="fill stroke markers" d=" M 10 15 L 0 15 L 5 0 Z" stroke-miterlimit="10" stroke-dasharray=""/></g></g><g transform="matrix(1,0,0,1,1074,100)"/><g id="_6ADFFD53-16E0-4D22-9127-29364ECE82D8" bpmn2nodeid="_6ADFFD53-16E0-4D22-9127-29364ECE82D8" transform="matrix(1,0,0,1,1074,242)"><g><path fill="none" stroke="none"/></g><g transform="matrix(0.125,0,0,0.125,0,0)"><g transform="matrix(1,0,0,1,0,0)"><path fill="#fce7e7" stroke="none" id="_6ADFFD53-16E0-4D22-9127-29364ECE82D8?shapeType=BACKGROUND" paint-order="stroke fill markers" d=" M 0 0 M 444 224 C 444 263.9 434.2 300.8 414.4 334.5 C 394.7 368.2 368 394.9 334.4 414.5 C 300.79999999999995 434.1 263.9 444 224 444 C 184.10000000000002 444 147.2 434.2 113.5 414.4 C 79.8 394.7 53.1 368 33.5 334.4 C 13.899999999999999 300.79999999999995 4 263.9 4 224 C 4 184.10000000000002 13.8 147.2 33.6 113.5 C 53.400000000000006 79.80000000000001 80.1 53.1 113.6 33.5 C 147.1 13.899999999999999 184.1 4 224 4 C 263.9 4 300.8 13.8 334.5 33.6 C 368.2 53.400000000000006 394.9 80.1 414.5 113.6 C 434.1 147.1 444 184.1 444 224 Z"/></g><g><g transform="matrix(1,0,0,1,0,0)"><g transform="matrix(1,0,0,1,0,0)"><path fill="rgb(163,0,0)" stroke="none" id="_6ADFFD53-16E0-4D22-9127-29364ECE82D8?shapeType=BORDER&amp;renderType=FILL" paint-order="stroke fill markers" d=" M 0 0 M 224 0 C 100.3 0 0 100.3 0 224 C 0 347.7 100.3 448 224 448 C 347.7 448 448 347.7 448 224 C 448 100.30000000000001 347.7 0 224 0 Z M 0 0 M 224 400 C 126.8 400 48 321.2 48 224 C 48 126.80000000000001 126.8 48 224 48 C 321.2 48 400 126.8 400 224 C 400 321.2 321.2 400 224 400 Z"/></g></g></g></g><g transform="matrix(1,0,0,1,28,56)"><g/></g></g><g id="_6ADFFD53-16E0-4D22-9127-29364ECE82D8" bpmn2nodeid="_6ADFFD53-16E0-4D22-9127-29364ECE82D8" transform="matrix(1,0,0,1,1074,242)"><g><path fill="none" stroke="none"/></g><g transform="matrix(0.125,0,0,0.125,0,0)"><g transform="matrix(1,0,0,1,0,0)"><path fill="#fce7e7" stroke="none" id="_6ADFFD53-16E0-4D22-9127-29364ECE82D8?shapeType=BACKGROUND" paint-order="stroke fill markers" d=" M 0 0 M 444 224 C 444 263.9 434.2 300.8 414.4 334.5 C 394.7 368.2 368 394.9 334.4 414.5 C 300.79999999999995 434.1 263.9 444 224 444 C 184.10000000000002 444 147.2 434.2 113.5 414.4 C 79.8 394.7 53.1 368 33.5 334.4 C 13.899999999999999 300.79999999999995 4 263.9 4 224 C 4 184.10000000000002 13.8 147.2 33.6 113.5 C 53.400000000000006 79.80000000000001 80.1 53.1 113.6 33.5 C 147.1 13.899999999999999 184.1 4 224 4 C 263.9 4 300.8 13.8 334.5 33.6 C 368.2 53.400000000000006 394.9 80.1 414.5 113.6 C 434.1 147.1 444 184.1 444 224 Z"/></g><g><g transform="matrix(1,0,0,1,0,0)"><g transform="matrix(1,0,0,1,0,0)"><path fill="rgb(163,0,0)" stroke="none" id="_6ADFFD53-16E0-4D22-9127-29364ECE82D8?shapeType=BORDER&amp;renderType=FILL" paint-order="stroke fill markers" d=" M 0 0 M 224 0 C 100.3 0 0 100.3 0 224 C 0 347.7 100.3 448 224 448 C 347.7 448 448 347.7 448 224 C 448 100.30000000000001 347.7 0 224 0 Z M 0 0 M 224 400 C 126.8 400 48 321.2 48 224 C 48 126.80000000000001 126.8 48 224 48 C 321.2 48 400 126.8 400 224 C 400 321.2 321.2 400 224 400 Z"/></g></g></g></g><g transform="matrix(1,0,0,1,28,56)"><g/></g></g><g id="_0220E563-5BB4-42A9-9876-288554BCF018" bpmn2nodeid="_0220E563-5BB4-42A9-9876-288554BCF018"><g><path fill="none" stroke="rgb(0,0,0)" paint-order="fill stroke markers" d=" M 994 270 L 1059 270" stroke-miterlimit="10" stroke-dasharray=""/></g><g transform="matrix(1,0,0,1,994,270)"/><g transform="matrix(6.123233995736766e-17,1,-1,6.123233995736766e-17,1074,265)"><path fill="rgb(0,0,0)" stroke="rgb(0,0,0)" paint-order="fill stroke markers" d=" M 10 15 L 0 15 L 5 0 Z" stroke-miterlimit="10" stroke-dasharray=""/></g></g><g transform="matrix(1,0,0,1,1074,242)"/><g id="_10C5C539-E2EA-4C29-8926-78D98D646AC1" bpmn2nodeid="_10C5C539-E2EA-4C29-8926-78D98D646AC1" transform="matrix(1,0,0,1,840,77)"><g><path fill="none" stroke="none"/></g><g transform="matrix(1,0,0,1,0,0)"><path fill="#ffffff" stroke="none" id="_10C5C539-E2EA-4C29-8926-78D98D646AC1?shapeType=BACKGROUND" paint-order="stroke fill markers" d=" M 2 0 L 152 0 L 152 0 A 2 2 0 0 1 154 2 L 154 100 L 154 100 A 2 2 0 0 1 152 102 L 2 102 L 2 102 A 2 2 0 0 1 0 100 L 0 2 L 0 2.0000000000000004 A 2 2 0 0 1 1.9999999999999996 0 Z"/></g><g transform="matrix(1,0,0,1,0,0)"><path fill="none" stroke="rgb(0,0,0)" id="_10C5C539-E2EA-4C29-8926-78D98D646AC1?shapeType=BORDER&amp;renderType=STROKE" paint-order="fill stroke markers" d=" M 2 0 L 152 0 L 152 0 A 2 2 0 0 1 154 2 L 154 100 L 154 100 A 2 2 0 0 1 152 102 L 2 102 L 2 102 A 2 2 0 0 1 0 100 L 0 2 L 0 2.0000000000000004 A 2 2 0 0 1 1.9999999999999996 0 Z" stroke-miterlimit="10" stroke-width="1.5" stroke-dasharray=""/></g><g><g transform="matrix(0.06,0,0,0.06,9.4,9.4)"><g transform="matrix(1,0,0,1,0,0)"><path fill="#393f44" stroke="none" id="_10C5C539-E2EA-4C29-8926-78D98D646AC1undefined" paint-order="stroke fill markers" d=" M 0 0 M 197.3 130.2 C 194.4 127.29999999999998 189.60000000000002 127.29999999999998 186.70000000000002 130.2 L 130.20000000000002 186.7 C 127.30000000000001 189.6 127.30000000000001 194.39999999999998 130.20000000000002 197.29999999999998 L 186.70000000000002 253.79999999999998 C 188.10000000000002 255.29999999999998 190.10000000000002 255.99999999999997 192.00000000000003 255.99999999999997 C 193.90000000000003 255.99999999999997 195.90000000000003 255.29999999999998 197.30000000000004 253.69999999999996 C 200.20000000000005 250.79999999999995 200.20000000000005 245.99999999999997 197.30000000000004 243.09999999999997 L 146.2 192 L 197.29999999999998 140.8 C 200.2 137.9 200.2 133.1 197.3 130.2 Z"/></g><g transform="matrix(1,0,0,1,0,0)"><path fill="#393f44" stroke="none" id="_10C5C539-E2EA-4C29-8926-78D98D646AC1undefined" paint-order="stroke fill markers" d=" M 0 0 M 261.3 130.2 C 258.40000000000003 127.29999999999998 253.60000000000002 127.29999999999998 250.70000000000002 130.2 C 247.8 133.1 247.8 137.89999999999998 250.70000000000002 140.79999999999998 L 301.8 191.89999999999998 L 250.7 243 C 247.79999999999998 245.9 247.79999999999998 250.7 250.7 253.6 C 252.1 255.29999999999998 254.1 256 256 256 C 257.9 256 259.9 255.3 261.3 253.8 L 317.8 197.3 C 320.7 194.4 320.7 189.60000000000002 317.8 186.70000000000002 L 261.3 130.2 Z"/></g><g transform="matrix(1,0,0,1,0,0)"><path fill="#393f44" stroke="none" id="_10C5C539-E2EA-4C29-8926-78D98D646AC1undefined" paint-order="stroke fill markers" d=" M 0 0 M 400 32 C 400 32 152.8 32 128 32 C 62 32 64 96 64 96 L 64 288 L 1 288 C 1 288 -4 416 78 416 L 320 416 C 368 416 384 368 384 336 C 384 314.2 384 224.4 384 160 L 448 160 L 448 96 C 448 96 449 32 400 32 Z M 0 0 M 78 383.9 C 68.5 383.9 61.6 381.09999999999997 55.5 374.9 C 43.4 362.4 37.5 339.59999999999997 34.9 320 L 256.9 320 C 257.09999999999997 322.7 257.29999999999995 325.4 257.59999999999997 328.2 C 259.99999999999994 351.59999999999997 264.7 370.09999999999997 271.9 383.9 L 78 383.9 L 78 383.9 Z M 0 0 M 352 336 C 352 345.9 349.6 360.3 342.9 371 C 337.2 380.1 330.4 384 320 384 C 285 384 288 288 288 288 L 96 288 L 96 96 L 96 95.9 L 96 95.10000000000001 C 96 90.60000000000001 97.6 78.30000000000001 104.7 71.20000000000002 C 106.5 69.40000000000002 111.9 64.00000000000001 128 64.00000000000001 L 356.5 64.00000000000001 C 354.4 72.80000000000001 352.8 81.80000000000001 352.2 89.9 C 352.2 90.5 352.09999999999997 91.10000000000001 352.09999999999997 91.7 C 352.09999999999997 92 352.09999999999997 92.3 352.09999999999997 92.60000000000001 C 352 94.8 352 96 352 96 L 352 160 L 352 336 Z"/></g></g></g><g transform="matrix(1,0,0,1,77,43.5)"><g><text fill="#000000" stroke="none" font-family="Open Sans" font-size="12pt" font-style="normal" font-weight="normal" text-decoration="normal" x="0" y="12" text-anchor="middle" dominant-baseline="alphabetic" id="_10C5C539-E2EA-4C29-8926-78D98D646AC1undefined">Task</text><path fill="none" stroke="none"/><text fill="none" stroke="#393f44" font-family="Open Sans" font-size="12pt" font-style="normal" font-weight="normal" text-decoration="normal" x="0" y="12" text-anchor="middle" dominant-baseline="alphabetic" stroke-miterlimit="10" stroke-dasharray="">Task</text></g></g></g><g id="_10C5C539-E2EA-4C29-8926-78D98D646AC1" bpmn2nodeid="_10C5C539-E2EA-4C29-8926-78D98D646AC1" transform="matrix(1,0,0,1,840,77)"><g><path fill="none" stroke="none"/></g><g transform="matrix(1,0,0,1,0,0)"><path fill="#ffffff" stroke="none" id="_10C5C539-E2EA-4C29-8926-78D98D646AC1?shapeType=BACKGROUND" paint-order="stroke fill markers" d=" M 2 0 L 152 0 L 152 0 A 2 2 0 0 1 154 2 L 154 100 L 154 100 A 2 2 0 0 1 152 102 L 2 102 L 2 102 A 2 2 0 0 1 0 100 L 0 2 L 0 2.0000000000000004 A 2 2 0 0 1 1.9999999999999996 0 Z"/></g><g transform="matrix(1,0,0,1,0,0)"><path fill="none" stroke="rgb(0,0,0)" id="_10C5C539-E2EA-4C29-8926-78D98D646AC1?shapeType=BORDER&amp;renderType=STROKE" paint-order="fill stroke markers" d=" M 2 0 L 152 0 L 152 0 A 2 2 0 0 1 154 2 L 154 100 L 154 100 A 2 2 0 0 1 152 102 L 2 102 L 2 102 A 2 2 0 0 1 0 100 L 0 2 L 0 2.0000000000000004 A 2 2 0 0 1 1.9999999999999996 0 Z" stroke-miterlimit="10" stroke-width="1.5" stroke-dasharray=""/></g><g><g transform="matrix(0.06,0,0,0.06,9.4,9.4)"><g transform="matrix(1,0,0,1,0,0)"><path fill="#393f44" stroke="none" id="_10C5C539-E2EA-4C29-8926-78D98D646AC1undefined" paint-order="stroke fill markers" d=" M 0 0 M 197.3 130.2 C 194.4 127.29999999999998 189.60000000000002 127.29999999999998 186.70000000000002 130.2 L 130.20000000000002 186.7 C 127.30000000000001 189.6 127.30000000000001 194.39999999999998 130.20000000000002 197.29999999999998 L 186.70000000000002 253.79999999999998 C 188.10000000000002 255.29999999999998 190.10000000000002 255.99999999999997 192.00000000000003 255.99999999999997 C 193.90000000000003 255.99999999999997 195.90000000000003 255.29999999999998 197.30000000000004 253.69999999999996 C 200.20000000000005 250.79999999999995 200.20000000000005 245.99999999999997 197.30000000000004 243.09999999999997 L 146.2 192 L 197.29999999999998 140.8 C 200.2 137.9 200.2 133.1 197.3 130.2 Z"/></g><g transform="matrix(1,0,0,1,0,0)"><path fill="#393f44" stroke="none" id="_10C5C539-E2EA-4C29-8926-78D98D646AC1undefined" paint-order="stroke fill markers" d=" M 0 0 M 261.3 130.2 C 258.40000000000003 127.29999999999998 253.60000000000002 127.29999999999998 250.70000000000002 130.2 C 247.8 133.1 247.8 137.89999999999998 250.70000000000002 140.79999999999998 L 301.8 191.89999999999998 L 250.7 243 C 247.79999999999998 245.9 247.79999999999998 250.7 250.7 253.6 C 252.1 255.29999999999998 254.1 256 256 256 C 257.9 256 259.9 255.3 261.3 253.8 L 317.8 197.3 C 320.7 194.4 320.7 189.60000000000002 317.8 186.70000000000002 L 261.3 130.2 Z"/></g><g transform="matrix(1,0,0,1,0,0)"><path fill="#393f44" stroke="none" id="_10C5C539-E2EA-4C29-8926-78D98D646AC1undefined" paint-order="stroke fill markers" d=" M 0 0 M 400 32 C 400 32 152.8 32 128 32 C 62 32 64 96 64 96 L 64 288 L 1 288 C 1 288 -4 416 78 416 L 320 416 C 368 416 384 368 384 336 C 384 314.2 384 224.4 384 160 L 448 160 L 448 96 C 448 96 449 32 400 32 Z M 0 0 M 78 383.9 C 68.5 383.9 61.6 381.09999999999997 55.5 374.9 C 43.4 362.4 37.5 339.59999999999997 34.9 320 L 256.9 320 C 257.09999999999997 322.7 257.29999999999995 325.4 257.59999999999997 328.2 C 259.99999999999994 351.59999999999997 264.7 370.09999999999997 271.9 383.9 L 78 383.9 L 78 383.9 Z M 0 0 M 352 336 C 352 345.9 349.6 360.3 342.9 371 C 337.2 380.1 330.4 384 320 384 C 285 384 288 288 288 288 L 96 288 L 96 96 L 96 95.9 L 96 95.10000000000001 C 96 90.60000000000001 97.6 78.30000000000001 104.7 71.20000000000002 C 106.5 69.40000000000002 111.9 64.00000000000001 128 64.00000000000001 L 356.5 64.00000000000001 C 354.4 72.80000000000001 352.8 81.80000000000001 352.2 89.9 C 352.2 90.5 352.09999999999997 91.10000000000001 352.09999999999997 91.7 C 352.09999999999997 92 352.09999999999997 92.3 352.09999999999997 92.60000000000001 C 352 94.8 352 96 352 96 L 352 160 L 352 336 Z"/></g></g></g><g transform="matrix(1,0,0,1,77,43.5)"><g><text fill="#000000" stroke="none" font-family="Open Sans" font-size="12pt" font-style="normal" font-weight="normal" text-decoration="normal" x="0" y="12" text-anchor="middle" dominant-baseline="alphabetic" id="_10C5C539-E2EA-4C29-8926-78D98D646AC1undefined">Task</text><path fill="none" stroke="none"/><text fill="none" stroke="#393f44" font-family="Open Sans" font-size="12pt" font-style="normal" font-weight="normal" text-decoration="normal" x="0" y="12" text-anchor="middle" dominant-baseline="alphabetic" stroke-miterlimit="10" stroke-dasharray="">Task</text></g></g></g><g id="_0B1EE35D-CEA9-4ABC-B3C7-9EED89F2029F" bpmn2nodeid="_0B1EE35D-CEA9-4ABC-B3C7-9EED89F2029F" transform="matrix(1,0,0,1,840,219)"><g><path fill="none" stroke="none"/></g><g transform="matrix(1,0,0,1,0,0)"><path fill="#ffffff" stroke="none" id="_0B1EE35D-CEA9-4ABC-B3C7-9EED89F2029F?shapeType=BACKGROUND" paint-order="stroke fill markers" d=" M 2 0 L 152 0 L 152 0 A 2 2 0 0 1 154 2 L 154 100 L 154 100 A 2 2 0 0 1 152 102 L 2 102 L 2 102 A 2 2 0 0 1 0 100 L 0 2 L 0 2.0000000000000004 A 2 2 0 0 1 1.9999999999999996 0 Z"/></g><g transform="matrix(1,0,0,1,0,0)"><path fill="none" stroke="rgb(0,0,0)" id="_0B1EE35D-CEA9-4ABC-B3C7-9EED89F2029F?shapeType=BORDER&amp;renderType=STROKE" paint-order="fill stroke markers" d=" M 2 0 L 152 0 L 152 0 A 2 2 0 0 1 154 2 L 154 100 L 154 100 A 2 2 0 0 1 152 102 L 2 102 L 2 102 A 2 2 0 0 1 0 100 L 0 2 L 0 2.0000000000000004 A 2 2 0 0 1 1.9999999999999996 0 Z" stroke-miterlimit="10" stroke-width="1.5" stroke-dasharray=""/></g><g><g transform="matrix(0.06,0,0,0.06,9.4,9.4)"><g transform="matrix(1,0,0,1,0,0)"><path fill="#393f44" stroke="none" id="_0B1EE35D-CEA9-4ABC-B3C7-9EED89F2029Fundefined" paint-order="stroke fill markers" d=" M 0 0 M 197.3 130.2 C 194.4 127.29999999999998 189.60000000000002 127.29999999999998 186.70000000000002 130.2 L 130.20000000000002 186.7 C 127.30000000000001 189.6 127.30000000000001 194.39999999999998 130.20000000000002 197.29999999999998 L 186.70000000000002 253.79999999999998 C 188.10000000000002 255.29999999999998 190.10000000000002 255.99999999999997 192.00000000000003 255.99999999999997 C 193.90000000000003 255.99999999999997 195.90000000000003 255.29999999999998 197.30000000000004 253.69999999999996 C 200.20000000000005 250.79999999999995 200.20000000000005 245.99999999999997 197.30000000000004 243.09999999999997 L 146.2 192 L 197.29999999999998 140.8 C 200.2 137.9 200.2 133.1 197.3 130.2 Z"/></g><g transform="matrix(1,0,0,1,0,0)"><path fill="#393f44" stroke="none" id="_0B1EE35D-CEA9-4ABC-B3C7-9EED89F2029Fundefined" paint-order="stroke fill markers" d=" M 0 0 M 261.3 130.2 C 258.40000000000003 127.29999999999998 253.60000000000002 127.29999999999998 250.70000000000002 130.2 C 247.8 133.1 247.8 137.89999999999998 250.70000000000002 140.79999999999998 L 301.8 191.89999999999998 L 250.7 243 C 247.79999999999998 245.9 247.79999999999998 250.7 250.7 253.6 C 252.1 255.29999999999998 254.1 256 256 256 C 257.9 256 259.9 255.3 261.3 253.8 L 317.8 197.3 C 320.7 194.4 320.7 189.60000000000002 317.8 186.70000000000002 L 261.3 130.2 Z"/></g><g transform="matrix(1,0,0,1,0,0)"><path fill="#393f44" stroke="none" id="_0B1EE35D-CEA9-4ABC-B3C7-9EED89F2029Fundefined" paint-order="stroke fill markers" d=" M 0 0 M 400 32 C 400 32 152.8 32 128 32 C 62 32 64 96 64 96 L 64 288 L 1 288 C 1 288 -4 416 78 416 L 320 416 C 368 416 384 368 384 336 C 384 314.2 384 224.4 384 160 L 448 160 L 448 96 C 448 96 449 32 400 32 Z M 0 0 M 78 383.9 C 68.5 383.9 61.6 381.09999999999997 55.5 374.9 C 43.4 362.4 37.5 339.59999999999997 34.9 320 L 256.9 320 C 257.09999999999997 322.7 257.29999999999995 325.4 257.59999999999997 328.2 C 259.99999999999994 351.59999999999997 264.7 370.09999999999997 271.9 383.9 L 78 383.9 L 78 383.9 Z M 0 0 M 352 336 C 352 345.9 349.6 360.3 342.9 371 C 337.2 380.1 330.4 384 320 384 C 285 384 288 288 288 288 L 96 288 L 96 96 L 96 95.9 L 96 95.10000000000001 C 96 90.60000000000001 97.6 78.30000000000001 104.7 71.20000000000002 C 106.5 69.40000000000002 111.9 64.00000000000001 128 64.00000000000001 L 356.5 64.00000000000001 C 354.4 72.80000000000001 352.8 81.80000000000001 352.2 89.9 C 352.2 90.5 352.09999999999997 91.10000000000001 352.09999999999997 91.7 C 352.09999999999997 92 352.09999999999997 92.3 352.09999999999997 92.60000000000001 C 352 94.8 352 96 352 96 L 352 160 L 352 336 Z"/></g></g></g><g transform="matrix(1,0,0,1,77,43.5)"><g><text fill="#000000" stroke="none" font-family="Open Sans" font-size="12pt" font-style="normal" font-weight="normal" text-decoration="normal" x="0" y="12" text-anchor="middle" dominant-baseline="alphabetic" id="_0B1EE35D-CEA9-4ABC-B3C7-9EED89F2029Fundefined">Task</text><path fill="none" stroke="none"/><text fill="none" stroke="#393f44" font-family="Open Sans" font-size="12pt" font-style="normal" font-weight="normal" text-decoration="normal" x="0" y="12" text-anchor="middle" dominant-baseline="alphabetic" stroke-miterlimit="10" stroke-dasharray="">Task</text></g></g></g><g id="_0B1EE35D-CEA9-4ABC-B3C7-9EED89F2029F" bpmn2nodeid="_0B1EE35D-CEA9-4ABC-B3C7-9EED89F2029F" transform="matrix(1,0,0,1,840,219)"><g><path fill="none" stroke="none"/></g><g transform="matrix(1,0,0,1,0,0)"><path fill="#ffffff" stroke="none" id="_0B1EE35D-CEA9-4ABC-B3C7-9EED89F2029F?shapeType=BACKGROUND" paint-order="stroke fill markers" d=" M 2 0 L 152 0 L 152 0 A 2 2 0 0 1 154 2 L 154 100 L 154 100 A 2 2 0 0 1 152 102 L 2 102 L 2 102 A 2 2 0 0 1 0 100 L 0 2 L 0 2.0000000000000004 A 2 2 0 0 1 1.9999999999999996 0 Z"/></g><g transform="matrix(1,0,0,1,0,0)"><path fill="none" stroke="rgb(0,0,0)" id="_0B1EE35D-CEA9-4ABC-B3C7-9EED89F2029F?shapeType=BORDER&amp;renderType=STROKE" paint-order="fill stroke markers" d=" M 2 0 L 152 0 L 152 0 A 2 2 0 0 1 154 2 L 154 100 L 154 100 A 2 2 0 0 1 152 102 L 2 102 L 2 102 A 2 2 0 0 1 0 100 L 0 2 L 0 2.0000000000000004 A 2 2 0 0 1 1.9999999999999996 0 Z" stroke-miterlimit="10" stroke-width="1.5" stroke-dasharray=""/></g><g><g transform="matrix(0.06,0,0,0.06,9.4,9.4)"><g transform="matrix(1,0,0,1,0,0)"><path fill="#393f44" stroke="none" id="_0B1EE35D-CEA9-4ABC-B3C7-9EED89F2029Fundefined" paint-order="stroke fill markers" d=" M 0 0 M 197.3 130.2 C 194.4 127.29999999999998 189.60000000000002 127.29999999999998 186.70000000000002 130.2 L 130.20000000000002 186.7 C 127.30000000000001 189.6 127.30000000000001 194.39999999999998 130.20000000000002 197.29999999999998 L 186.70000000000002 253.79999999999998 C 188.10000000000002 255.29999999999998 190.10000000000002 255.99999999999997 192.00000000000003 255.99999999999997 C 193.90000000000003 255.99999999999997 195.90000000000003 255.29999999999998 197.30000000000004 253.69999999999996 C 200.20000000000005 250.79999999999995 200.20000000000005 245.99999999999997 197.30000000000004 243.09999999999997 L 146.2 192 L 197.29999999999998 140.8 C 200.2 137.9 200.2 133.1 197.3 130.2 Z"/></g><g transform="matrix(1,0,0,1,0,0)"><path fill="#393f44" stroke="none" id="_0B1EE35D-CEA9-4ABC-B3C7-9EED89F2029Fundefined" paint-order="stroke fill markers" d=" M 0 0 M 261.3 130.2 C 258.40000000000003 127.29999999999998 253.60000000000002 127.29999999999998 250.70000000000002 130.2 C 247.8 133.1 247.8 137.89999999999998 250.70000000000002 140.79999999999998 L 301.8 191.89999999999998 L 250.7 243 C 247.79999999999998 245.9 247.79999999999998 250.7 250.7 253.6 C 252.1 255.29999999999998 254.1 256 256 256 C 257.9 256 259.9 255.3 261.3 253.8 L 317.8 197.3 C 320.7 194.4 320.7 189.60000000000002 317.8 186.70000000000002 L 261.3 130.2 Z"/></g><g transform="matrix(1,0,0,1,0,0)"><path fill="#393f44" stroke="none" id="_0B1EE35D-CEA9-4ABC-B3C7-9EED89F2029Fundefined" paint-order="stroke fill markers" d=" M 0 0 M 400 32 C 400 32 152.8 32 128 32 C 62 32 64 96 64 96 L 64 288 L 1 288 C 1 288 -4 416 78 416 L 320 416 C 368 416 384 368 384 336 C 384 314.2 384 224.4 384 160 L 448 160 L 448 96 C 448 96 449 32 400 32 Z M 0 0 M 78 383.9 C 68.5 383.9 61.6 381.09999999999997 55.5 374.9 C 43.4 362.4 37.5 339.59999999999997 34.9 320 L 256.9 320 C 257.09999999999997 322.7 257.29999999999995 325.4 257.59999999999997 328.2 C 259.99999999999994 351.59999999999997 264.7 370.09999999999997 271.9 383.9 L 78 383.9 L 78 383.9 Z M 0 0 M 352 336 C 352 345.9 349.6 360.3 342.9 371 C 337.2 380.1 330.4 384 320 384 C 285 384 288 288 288 288 L 96 288 L 96 96 L 96 95.9 L 96 95.10000000000001 C 96 90.60000000000001 97.6 78.30000000000001 104.7 71.20000000000002 C 106.5 69.40000000000002 111.9 64.00000000000001 128 64.00000000000001 L 356.5 64.00000000000001 C 354.4 72.80000000000001 352.8 81.80000000000001 352.2 89.9 C 352.2 90.5 352.09999999999997 91.10000000000001 352.09999999999997 91.7 C 352.09999999999997 92 352.09999999999997 92.3 352.09999999999997 92.60000000000001 C 352 94.8 352 96 352 96 L 352 160 L 352 336 Z"/></g></g></g><g transform="matrix(1,0,0,1,77,43.5)"><g><text fill="#000000" stroke="none" font-family="Open Sans" font-size="12pt" font-style="normal" font-weight="normal" text-decoration="normal" x="0" y="12" text-anchor="middle" dominant-baseline="alphabetic" id="_0B1EE35D-CEA9-4ABC-B3C7-9EED89F2029Fundefined">Task</text><path fill="none" stroke="none"/><text fill="none" stroke="#393f44" font-family="Open Sans" font-size="12pt" font-style="normal" font-weight="normal" text-decoration="normal" x="0" y="12" text-anchor="middle" dominant-baseline="alphabetic" stroke-miterlimit="10" stroke-dasharray="">Task</text></g></g></g><g transform="matrix(1,0,0,1,236,77)"/><g transform="matrix(1,0,0,1,470,77)"/><g transform="matrix(1,0,0,1,840,77)"/><g transform="matrix(1,0,0,1,840,219)"/></g></g></svg>